HIERARCHY
ROOT Hips
{
	OFFSET 0.000000 0.000000 0.000000 
	CHANNELS 6 Xposition Yposition Zposition Zrotation Yrotation Xrotation
	JOINT LeftUpLeg
	{
		OFFSET 1.363060 -1.794630 0.839290 
		CHANNELS 3 Zrotation Yrotation Xrotation
		JOINT LeftLeg
		{
			OFFSET 2.448110 -6.726130 0.000000 
			CHANNELS 3 Zrotation Yrotation Xrotation
			JOINT LeftFoot
			{
				OFFSET 2.562200 -7.039590 0.000000 
				CHANNELS 3 Zrotation Yrotation Xrotation
				JOINT LeftToeBase
				{
					OFFSET 0.157640 -0.433110 2.322550 
					CHANNELS 3 Zrotation Yrotation Xrotation
					End Site
					{
						OFFSET 0.000000 0.000000 0.000000 
					}
				}
			}
		}
	}
	JOINT RightUpLeg
	{
		OFFSET -1.305520 -1.794630 0.839290 
		CHANNELS 3 Zrotation Yrotation Xrotation
		JOINT RightLeg
		{
			OFFSET -2.542530 -6.985550 0.000000 
			CHANNELS 3 Zrotation Yrotation Xrotation
			JOINT RightFoot
			{
				OFFSET -2.568260 -7.056230 0.000000 
				CHANNELS 3 Zrotation Yrotation Xrotation
				JOINT RightToeBase
				{
					OFFSET -0.164730 -0.452590 2.363150 
					CHANNELS 3 Zrotation Yrotation Xrotation
					End Site
					{
						OFFSET 0.000000 0.000000 0.000000 
					}
				}
			}
		}
	}
	JOINT Spine
	{
		OFFSET 0.028270 2.035590 -0.193380 
		CHANNELS 3 Zrotation Yrotation Xrotation
		JOINT Spine1
		{
			OFFSET 0.056720 2.048850 -0.042750 
			CHANNELS 3 Zrotation Yrotation Xrotation
			JOINT Neck1
			{
				OFFSET -0.054170 1.746240 0.172020 
				CHANNELS 3 Zrotation Yrotation Xrotation
				JOINT Head
				{
					OFFSET 0.104070 1.761360 -0.123970 
					CHANNELS 3 Zrotation Yrotation Xrotation
					End Site
					{
						OFFSET 0.000000 0.000000 0.000000 
					}
				}
			}
			JOINT LeftArm
			{
				OFFSET 3.362410 1.200890 -0.311210 
				CHANNELS 3 Zrotation Yrotation Xrotation
				JOINT LeftForeArm
				{
					OFFSET 4.983000 -0.000000 -0.000000 
					CHANNELS 3 Zrotation Yrotation Xrotation
					JOINT LeftHand
					{
						OFFSET 3.483560 -0.000000 -0.000000 
						CHANNELS 3 Zrotation Yrotation Xrotation
						JOINT LeftHandIndex1
						{
							OFFSET 0.715260 -0.000000 -0.000000 
							CHANNELS 3 Zrotation Yrotation Xrotation
							End Site
							{
								OFFSET 0.000000 0.000000 0.000000 
							}
						}
					}
				}
			}
			JOINT RightArm
			{
				OFFSET -3.136600 1.374050 -0.404650 
				CHANNELS 3 Zrotation Yrotation Xrotation
				JOINT RightForeArm
				{
					OFFSET -5.241900 -0.000000 -0.000000 
					CHANNELS 3 Zrotation Yrotation Xrotation
					JOINT RightHand
					{
						OFFSET -3.444170 -0.000000 -0.000000 
						CHANNELS 3 Zrotation Yrotation Xrotation
						JOINT RightHandIndex1
						{
							OFFSET -0.622530 -0.000000 -0.000000 
							CHANNELS 3 Zrotation Yrotation Xrotation
							End Site
							{
								OFFSET 0.000000 0.000000 0.000000 
							}
						}
					}
				}
			}
		}
	}
}
MOTION
Frames: 12
Frame Time: 0.041667
-1.195357 18.806941 19.412437 179.685946 -2.644902 -148.553739 -61.662297 -26.099062 -13.518276 5.973839 3.620818 10.316312 0.431760 -14.977353 -45.166874 2.052200 -8.973900 -25.713600 64.152471 29.756965 -15.057517 -6.200378 -4.024420 11.434228 -1.601193 12.215849 -46.598324 -1.468800 7.658700 -21.682100 2.829963 -1.651520 -6.737937 -0.049338 -2.543683 23.653527 11.112448 -4.931575 5.654880 0.659000 -2.189100 3.301600 -111.012736 -7.935134 23.673681 18.413902 -15.697293 -1.842922 0.733946 -0.010215 -1.586452 -7.125000 0.000000 0.000000 104.457326 3.993866 9.198607 -21.640008 29.166839 -3.648294 -0.033931 -4.507501 -2.909769 7.125000 0.000000 0.000000 
-1.201208 18.806845 19.412341 179.889110 -2.639533 -148.619756 -61.549366 -25.995778 -13.483592 6.000824 3.617802 10.332292 0.402926 -15.027334 -45.161247 2.055400 -8.980500 -25.734300 64.312876 29.719127 -14.977025 -6.169411 -4.019383 11.429938 -1.602267 12.232316 -46.563544 -1.489800 7.710900 -21.839300 3.389898 -1.585948 -6.685151 -0.328453 -2.497179 23.562138 11.402194 -5.157547 6.200821 0.682500 -2.254300 3.381100 -111.023519 -7.788768 23.747524 18.348851 -15.586340 -1.823855 0.714824 0.021458 -1.774742 -7.125000 0.000000 0.000000 104.486706 3.947166 8.706053 -21.519082 29.002017 -3.599556 -0.027281 -4.529995 -2.642164 7.125000 0.000000 0.000000 
-1.207348 18.807037 19.413684 179.891914 -2.624661 -148.690574 -61.557077 -25.814735 -13.422603 6.013748 3.601923 10.329382 0.330568 -15.158208 -45.090422 2.009700 -8.886300 -25.440200 64.405549 29.484578 -14.895262 -6.170394 -4.002498 11.456765 -1.514681 12.458074 -46.523219 -1.484700 7.698200 -21.801000 2.882340 -1.603389 -6.736925 -0.242361 -2.481363 23.501247 11.366457 -5.355511 6.603000 0.636500 -2.321800 3.424900 -110.946515 -7.622010 23.709290 18.265844 -15.387671 -1.794816 0.720635 0.015527 -1.471780 -7.125000 0.000000 0.000000 104.525375 3.964957 8.301559 -21.344135 28.776321 -3.538140 0.061132 -4.600346 -2.528831 7.125000 0.000000 0.000000 
-1.211089 18.807516 19.416370 179.801382 -2.649301 -148.834865 -61.622519 -25.543111 -13.326301 6.022299 3.576366 10.370239 0.123849 -15.556285 -44.964079 1.774900 -8.380500 -23.875800 64.426187 29.294030 -14.780786 -6.183311 -4.001085 11.524906 -1.475454 12.584425 -46.536455 -1.454500 7.622900 -21.574400 2.216344 -1.674472 -6.449114 -0.064193 -2.491122 23.330673 11.506363 -5.546740 7.138806 0.612600 -2.370300 3.491400 -110.788869 -7.543121 23.971346 18.126217 -15.074629 -1.754177 0.746411 -0.023997 -1.455071 -7.125000 0.000000 0.000000 104.557051 4.070346 7.946332 -21.070267 28.444676 -3.443790 0.084066 -4.639066 -2.303003 7.125000 0.000000 0.000000 
-1.215022 18.808572 19.419248 179.744403 -2.650627 -148.941155 -61.696755 -25.346780 -13.255441 6.023483 3.551945 10.391270 -0.065587 -15.914073 -44.842458 1.533300 -7.817700 -22.161700 64.361144 29.267688 -14.754720 -6.199915 -4.007764 11.585398 -1.441025 12.663270 -46.533297 -1.442600 7.593100 -21.484800 2.107371 -1.714562 -6.111297 -0.035323 -2.497804 23.252906 11.980491 -5.394284 6.778185 0.695600 -2.308000 3.450800 -110.724280 -7.517678 24.233883 17.986093 -14.828432 -1.711467 0.746037 0.045428 -1.536035 -7.125000 0.000000 0.000000 104.532326 4.150655 7.782878 -20.909782 28.232281 -3.381612 0.069440 -4.657523 -2.167243 7.125000 0.000000 0.000000 
-1.219531 18.808955 19.423277 179.733252 -2.569560 -148.942067 -61.761414 -25.231311 -13.269398 6.018073 3.547881 10.395808 -0.139047 -16.041738 -44.781799 1.537000 -7.826700 -22.188800 64.240099 29.311441 -14.897135 -6.214192 -4.040450 11.718744 -1.348442 12.835024 -46.510923 -1.488500 7.707600 -21.829500 2.314719 -1.703388 -6.036563 -0.058793 -2.501794 23.251354 12.112739 -5.309862 6.626200 0.730000 -2.275200 3.427700 -110.822099 -7.626271 23.860998 17.729744 -14.408533 -1.637095 0.764586 -0.031573 -1.016259 -7.125000 0.000000 0.000000 104.512197 4.125942 7.507365 -20.877928 28.182773 -3.372781 0.075879 -4.679922 -1.935422 7.125000 0.000000 0.000000 
-1.221929 18.809819 19.428649 179.804759 -2.520261 -148.881779 -61.702657 -25.224860 -13.362633 6.025720 3.569611 10.443302 -0.136058 -16.018700 -44.790089 1.564300 -7.892500 -22.388100 64.205560 29.487440 -15.044366 -6.196165 -4.095293 11.841779 -1.380655 12.735753 -46.549633 -1.559200 7.880400 -22.351300 2.548244 -1.704383 -6.367335 -0.080889 -2.528786 23.181588 11.490666 -5.836500 8.259979 0.578500 -2.434100 3.602200 -110.929202 -7.614080 23.322717 17.512826 -13.994531 -1.563098 0.764529 -0.015693 -0.454919 -7.125000 0.000000 0.000000 104.487659 4.023213 7.277357 -20.811960 28.085678 -3.356243 0.066857 -4.705728 -1.672141 7.125000 0.000000 0.000000 
-1.224327 18.811258 19.434213 179.852185 -2.525322 -148.874059 -61.685531 -25.219797 -13.360877 6.030143 3.572678 10.418503 -0.079933 -15.886987 -44.773024 1.635400 -8.061300 -22.900300 64.200268 29.621455 -15.066899 -6.185753 -4.115017 11.844495 -1.474247 12.515491 -46.588277 -1.568600 7.903000 -22.419800 2.806024 -1.695443 -6.747885 -0.189608 -2.532518 23.234673 11.566770 -5.467620 7.687748 0.646900 -2.294700 3.522300 -110.937557 -7.516267 22.948112 17.389272 -13.792015 -1.524931 0.761112 -0.025046 -0.180221 -7.125000 0.000000 0.000000 104.446712 3.966697 7.266774 -20.601915 27.758606 -3.274345 0.049438 -4.681973 -1.670820 7.125000 0.000000 0.000000 
-1.227589 18.810970 19.437858 179.941722 -2.498011 -148.829975 -61.676953 -25.228188 -13.380692 6.030118 3.577052 10.411268 -0.057128 -15.837038 -44.781762 1.740600 -8.303400 -23.639400 64.146844 29.760137 -15.166092 -6.181748 -4.137375 11.888399 -1.485465 12.467777 -46.596565 -1.459900 7.636500 -21.615300 3.573511 -1.640345 -6.987518 -0.407051 -2.527860 23.300823 11.733668 -5.115494 6.882622 0.735200 -2.177800 3.428800 -111.006151 -7.433970 22.641594 17.284031 -13.650287 -1.498026 0.757831 -0.054043 0.044762 -7.125000 0.000000 0.000000 104.369156 3.933483 7.211448 -20.540787 27.631083 -3.241354 0.043601 -4.692684 -1.677687 7.125000 0.000000 0.000000 
-1.232577 18.810202 19.441599 -179.961777 -2.439659 -148.658063 -61.610511 -25.361759 -13.568825 6.026423 3.607119 10.480428 -0.061079 -15.863701 -44.876316 1.807200 -8.452300 -24.096500 64.033793 29.958989 -15.460935 -6.170959 -4.202330 12.061588 -1.417303 12.560299 -46.594946 -1.448700 7.608400 -21.530700 4.237193 -1.526360 -7.328268 -0.637640 -2.490578 23.487137 12.472212 -4.785056 5.420691 0.894300 -2.107800 3.256000 -111.046090 -7.351309 22.644758 17.198184 -13.564176 -1.475819 0.755560 0.018108 0.109486 -7.125000 0.000000 0.000000 104.389643 3.917835 6.819867 -20.500063 27.562200 -3.219608 0.011080 -4.693596 -1.373563 7.125000 0.000000 0.000000 
-1.238428 18.811353 19.448218 -179.973643 -2.359976 -148.442637 -61.548446 -25.545698 -13.802384 6.019785 3.643081 10.513426 0.019604 -15.712577 -44.976875 1.971000 -8.805300 -25.188300 63.894587 30.141373 -15.812472 -6.162136 -4.277237 12.256898 -1.330755 12.673677 -46.585094 -1.587000 7.946800 -22.552700 3.874539 -1.523994 -7.898070 -0.519079 -2.508414 23.525268 11.999790 -5.265567 6.570665 0.754500 -2.267500 3.384600 -111.018125 -7.146414 22.736596 17.150398 -13.391438 -1.464516 0.762756 -0.012974 0.065954 -7.125000 0.000000 0.000000 104.413853 3.877768 6.559402 -20.385727 27.418408 -3.184092 -0.017325 -4.715499 -1.089677 7.125000 0.000000 0.000000 
-1.243704 18.810202 19.454262 179.958432 -2.318634 -148.278387 -61.527701 -25.587638 -13.974973 6.016229 3.668959 10.552630 0.036973 -15.669836 -45.008087 2.141000 -9.153700 -26.277300 63.756794 30.363349 -16.087713 -6.154925 -4.329099 12.364445 -1.290599 12.700236 -46.592397 -1.574100 7.916100 -22.459500 3.123142 -1.617632 -8.249137 -0.262465 -2.565034 23.450311 11.048941 -5.853684 8.610150 0.519900 -2.434100 3.629500 -110.958495 -6.952473 22.703016 17.111895 -13.198637 -1.446025 0.757672 -0.022241 0.108779 -7.125000 0.000000 0.000000 104.452508 3.811535 6.356722 -20.285129 27.310624 -3.161214 -0.032746 -4.738884 -0.804737 7.125000 0.000000 0.000000 
